<?xml version="1.0" standalone="no"?>
<!DOCTYPE svg PUBLIC "-//W3C//DTD SVG 20010904//EN"
 "http://www.w3.org/TR/2001/REC-SVG-20010904/DTD/svg10.dtd">
<svg version="1.0" xmlns="http://www.w3.org/2000/svg"
 width="600.000000pt" height="600.000000pt" viewBox="0 0 600.000000 600.000000"
 preserveAspectRatio="xMidYMid meet">
<metadata>
Created by potrace 1.11, written by Peter Selinger 2001-2013
</metadata>
<g transform="translate(0.000000,600.000000) scale(0.100000,-0.100000)"
fill="#000000" stroke="none">
<path d="M0 3000 l0 -3000 3000 0 3000 0 0 3000 0 3000 -3000 0 -3000 0 0
-3000z m4115 2170 l70 -70 -98 -98 c-90 -90 -109 -114 -89 -111 4 1 117 1 252
0 l245 -1 -698 -698 -697 -697 2 -1010 3 -1010 137 -12 c359 -33 518 -106 518
-238 0 -113 -118 -180 -385 -221 -170 -26 -580 -26 -750 0 -267 41 -385 108
-385 221 0 132 159 205 518 238 l137 12 3 1010 2 1010 -697 697 -698 698 1089
0 1090 0 175 175 c97 96 178 175 181 175 3 0 37 -32 75 -70z"/>
<path d="M3880 4975 l-155 -155 -1012 0 c-557 0 -1013 -3 -1013 -8 0 -4 286
-293 635 -642 l635 -635 0 -1066 0 -1066 -37 -7 c-21 -3 -65 -6 -98 -6 -165
-1 -408 -53 -475 -101 -64 -46 -52 -101 30 -144 182 -94 807 -114 1112 -36
126 32 178 68 178 121 0 63 -125 116 -348 145 -59 8 -134 15 -167 15 -33 0
-77 3 -97 6 l-38 7 0 1066 0 1066 635 635 c349 349 635 638 635 643 0 4 -98 7
-217 7 -120 0 -234 -1 -253 0 l-35 0 139 139 c120 121 138 142 127 155 -8 9
-16 16 -20 16 -3 0 -76 -70 -161 -155z m-1530 -335 l0 -120 -143 0 -142 0
-123 123 -122 122 265 -3 265 -3 0 -119z m461 -4 l-121 -121 -120 120 -120
120 217 5 c120 3 229 3 242 1 20 -3 9 -17 -98 -125z m315 103 c-14 -11 -42
-39 -64 -64 -31 -35 -38 -40 -36 -22 1 12 3 41 3 64 1 41 2 42 39 45 20 2 47
1 59 -1 l23 -3 -24 -19z m344 9 c19 -6 55 -21 79 -35 l43 -25 -123 -124 c-117
-117 -123 -125 -106 -141 16 -17 23 -11 141 106 l123 123 22 -35 c60 -97 70
-228 26 -324 -32 -70 -93 -136 -160 -171 -45 -24 -61 -27 -150 -27 -89 0 -106
3 -157 28 -115 56 -178 165 -178 305 0 64 5 87 29 138 74 157 244 232 411 182z
m590 -103 l-125 -125 -97 0 -96 0 -7 29 c-3 16 -21 53 -40 82 l-34 54 36 37
37 38 220 3 c122 1 223 3 226 5 3 1 -51 -54 -120 -123z m-415 95 c-18 -19 -24
-19 -65 10 -11 7 -2 10 34 10 48 0 49 0 31 -20z m-1138 -112 c51 -51 93 -96
93 -100 0 -5 -45 -8 -100 -8 l-100 0 0 100 c0 55 3 100 7 100 4 0 49 -42 100
-92z m464 -73 l1 -158 -196 -196 -196 -196 -82 83 -83 82 275 275 c151 151
275 273 277 272 1 -2 3 -74 4 -162z m-621 -200 c0 -63 -1 -115 -3 -115 -1 0
-54 52 -117 115 l-115 115 118 0 117 0 0 -115z m290 112 c0 -1 -54 -56 -120
-122 l-120 -120 0 123 0 122 120 0 c66 0 120 -1 120 -3z m1240 0 c0 -1 -29
-31 -65 -67 l-64 -64 2 67 2 67 63 0 c34 0 62 -1 62 -3z m-1007 -559 l-98 -98
-80 80 -80 80 175 175 175 175 3 -157 3 -157 -98 -98z m259 205 c83 -59 190
-87 281 -73 l49 7 -123 -123 -124 -124 -92 92 -93 93 0 119 0 120 29 -40 c16
-22 49 -53 73 -71z m-160 -349 l-3 -148 -77 77 -77 77 74 74 c41 41 77 73 80
71 3 -1 5 -70 3 -151z m136 73 l72 -72 -75 -75 -75 -74 0 147 c0 81 1 147 3
147 1 0 35 -33 75 -73z m-136 -2514 c2 -10 2 -30 0 -45 l-4 -28 -287 0 c-257
1 -283 2 -259 15 68 37 279 72 445 74 89 1 102 -1 105 -16z m238 9 c0 -4 -40
-47 -89 -96 l-89 -89 -4 80 c-5 120 -10 113 93 113 49 0 89 -3 89 -8z m245
-28 c86 -18 175 -58 175 -78 0 -45 -214 -97 -452 -112 l-113 -6 110 111 110
112 50 -7 c28 -3 81 -12 120 -20z m-483 -150 l3 -47 -130 7 c-71 3 -171 13
-221 21 -87 14 -224 51 -224 60 0 3 128 5 284 5 l284 0 4 -46z"/>
</g>
</svg>
